<svg xmlns="http://www.w3.org/2000/svg" viewBox="0 0 40 40"><path fill="#253064" d="M9.753 36.164l2.296 2.295a4.262 4.262 0 0 0 6.008 0l14.48-14.482L15.934 7.37 1.45 21.853a4.261 4.261 0 0 0 0 6.007l2.295 2.296a4.248 4.248 0 0 1 6.007 6.008m28.792-24.2L36.25 9.667a4.247 4.247 0 1 1-6.007-6.007l-2.296-2.296a4.26 4.26 0 0 0-6.008 0L17.434 5.87 34.04 22.475l4.505-4.505a4.26 4.26 0 0 0 0-6.007"/><path fill="#ef6c6e" d="M15.962 26.07a1.982 1.982 0 1 1-3.963.002 1.982 1.982 0 0 1 3.963-.002"/><path fill="#fff" d="M21.752 18.157a1.98 1.98 0 1 1-2.803 2.803 1.982 1.982 0 0 1 2.803-2.803"/></svg>